<svg width="1220" height="653" viewBox="0 0 1220 653" fill="none" xmlns="http://www.w3.org/2000/svg">
<path d="M193.581 383.936C195.75 379.908 202.848 376.593 206.358 374.262C218.984 365.878 232.169 358.382 245.236 350.716C287.876 325.704 328.797 298.683 363.239 262.83C389.775 235.207 414.82 202.02 415.989 162.258C416.416 147.765 415.914 121.688 401.068 113.067C391.784 107.677 386.562 138.287 385.599 141.906C372.367 191.65 350.99 238.606 337.321 288.201C323.717 337.557 316.607 388.561 301.819 437.599C296.463 455.36 289.778 472.738 280.418 488.798C275.055 497.999 268.034 510.134 256.963 513.256C242.91 517.22 232.245 495.267 227.166 485.649C219.598 471.319 223.618 458.688 229.63 444.398C245.294 407.169 276.355 377.589 306.93 352.314C333.151 330.638 360.326 310.086 386.968 288.931C416.538 265.452 445.704 241.397 476.132 219.024C493.848 205.997 511.771 193.02 531.848 183.842C544.588 178.018 557.791 173.795 571.045 169.377C578.263 166.971 585.066 163.815 591.99 160.707C593.566 159.999 596.218 159.555 597.603 158.516C597.931 158.27 603.761 164.514 604.265 165.178C609.626 172.246 611.111 177.214 610.015 185.986" stroke="#333" stroke-width="10" stroke-linecap="round"/>
<path d="M325 350.26C325.634 343.289 333.102 335.504 337.64 330.912C350.861 317.534 368.508 310.69 387.333 311.382C407.615 312.128 412.014 328.455 413.16 346.062C415.085 375.627 407.62 405.318 410.787 434.815C411.433 440.824 413.399 449.688 420.644 450.923C431.186 452.72 444.899 442.352 453.225 437.416C480.339 421.343 508.633 400.342 540.29 394.614C544.726 393.811 545.684 393.884 546.952 397.899C549.396 405.638 552.738 412.09 561.645 413.505C582.223 416.777 603.496 406.658 621.286 397.763C637.999 389.406 654.162 380.179 669.062 368.878C674.195 364.985 679.259 360.296 685.489 358.2C691.143 356.298 696.307 355.045 701.78 352.268C726.458 339.744 747.05 321.967 767.991 304.172C772.94 299.967 774.809 297.625 780.722 298.058C788.873 298.654 796.51 291.789 802.397 287.106C815.664 276.553 827.423 264.26 840.454 253.43C846.349 248.531 852.523 243.659 859.163 239.786C860.89 238.779 861.837 238.462 863.726 238.737C883.941 241.677 905.243 223.409 919.807 212.088C952.127 186.965 978.404 154.905 1012.03 131.32C1033.71 116.115 1057.82 105.367 1080.57 91.9855C1123.93 66.4793 1161.55 33.4238 1200.58 2" stroke="#333" stroke-width="10" stroke-linecap="round"/>
<path d="M184.57 437.835C177.825 440.371 171.247 446.391 165.274 450.584C139.509 468.667 114.045 486.739 91.1551 509.857C66.4868 534.772 43.6715 563.114 23.4684 593.189C16.0377 604.25 6.50685 617.38 2.6185 631.179C0.615418 638.288 3.65099 642.522 9.22313 645.11C15.1754 647.876 26.3655 649.89 32.0156 650.354C59.3134 652.597 86.7211 648.712 113.559 643.106C162.112 632.964 210.178 617.839 257.436 601.311C315.804 580.898 373.122 556.823 429.588 529.906C546.864 474.001 659.53 405.464 769.921 332.552C849.242 280.161 927.119 224.764 1004.06 167.584C1076.27 113.922 1146.76 57.4228 1218 2" stroke="#333" stroke-width="10" stroke-linecap="round"/>
</svg>
